<svg width="2711" height="643" viewBox="0 0 2711 643" fill="none" xmlns="http://www.w3.org/2000/svg">
<path d="M496.976 295.615L393.423 118.015C389.503 111.315 383.899 105.759 377.168 101.897C370.437 98.0345 362.813 96.0017 355.053 96H147.947C140.188 96.0017 132.563 98.0345 125.832 101.897C119.101 105.759 113.497 111.315 109.577 118.015L6.02407 295.615C2.07828 302.415 0 310.137 0 318C0 325.863 2.07828 333.585 6.02407 340.385L109.577 517.985C113.497 524.685 119.101 530.241 125.832 534.103C132.563 537.965 140.188 539.998 147.947 540H355.053C362.813 539.998 370.437 537.965 377.168 534.103C383.899 530.241 389.503 524.685 393.423 517.985L496.976 340.385C500.922 333.585 503 325.863 503 318C503 310.137 500.922 302.415 496.976 295.615ZM416.353 331.598L345.715 452.68C343.344 456.732 339.955 460.094 335.883 462.431C331.812 464.767 327.201 465.998 322.508 466H180.492C175.799 465.998 171.188 464.767 167.117 462.431C163.046 460.094 159.656 456.732 157.285 452.68L86.6474 331.598C84.2515 327.484 82.9892 322.808 82.9892 318.046C82.9892 313.285 84.2515 308.609 86.6474 304.495L157.285 183.412C159.645 179.343 163.029 175.963 167.101 173.61C171.173 171.256 175.79 170.012 180.492 170H322.508C327.201 170.002 331.812 171.233 335.883 173.569C339.955 175.906 343.344 179.268 345.715 183.32L416.353 304.403C418.749 308.516 420.011 313.192 420.011 317.954C420.011 322.715 418.749 327.391 416.353 331.505V331.598Z" fill="#FBD603"/>
<path d="M418.32 331.143L347.268 452.635C344.883 456.701 341.474 460.074 337.379 462.418C333.284 464.763 328.646 465.998 323.925 466H181.075C176.354 465.998 171.716 464.763 167.621 462.418C163.526 460.074 160.117 456.701 157.732 452.635L86.6797 331.143C84.2697 327.016 83 322.324 83 317.546C83 312.769 84.2697 308.077 86.6797 303.949L157.732 182.458C160.105 178.374 163.51 174.983 167.605 172.622C171.701 170.261 176.345 169.012 181.075 169H323.925C328.646 169.002 333.284 170.237 337.379 172.582C341.474 174.926 344.883 178.299 347.268 182.365L418.32 303.857C420.73 307.984 422 312.676 422 317.454C422 322.231 420.73 326.923 418.32 331.051V331.143Z" fill="#F5BB00"/>
<path d="M252.5 263.022L168.667 336.791C168.053 337.365 167.247 337.595 166.557 338.092V408.875C166.557 410.499 167.204 412.057 168.355 413.206C169.506 414.355 171.068 415 172.696 415H221.806C223.434 415 224.996 414.355 226.147 413.206C227.298 412.057 227.945 410.499 227.945 408.875V359.874C227.945 358.25 228.592 356.692 229.743 355.543C230.894 354.395 232.455 353.749 234.084 353.749H270.916C272.544 353.749 274.106 354.395 275.257 355.543C276.408 356.692 277.055 358.25 277.055 359.874V408.875C277.055 410.499 277.702 412.057 278.853 413.206C280.004 414.355 281.566 415 283.194 415H332.304C333.932 415 335.494 414.355 336.645 413.206C337.796 412.057 338.443 410.499 338.443 408.875V338.092C337.791 337.633 337.024 337.403 336.41 336.867L252.5 263.022ZM360.965 309.458L262.782 222.941C259.969 220.404 256.311 219 252.519 219C248.727 219 245.07 220.404 242.256 222.941L144.035 309.458C143.435 309.995 142.948 310.646 142.6 311.372C142.252 312.098 142.051 312.885 142.009 313.688C141.966 314.492 142.082 315.296 142.351 316.054C142.62 316.813 143.035 317.511 143.575 318.109L151.785 327.22C152.324 327.819 152.976 328.305 153.704 328.652C154.431 328.999 155.22 329.2 156.026 329.242C156.831 329.285 157.637 329.169 158.397 328.901C159.157 328.633 159.857 328.218 160.456 327.68L248.433 250.236C249.555 249.246 251.002 248.699 252.5 248.699C253.998 248.699 255.445 249.246 256.567 250.236L344.544 327.68C345.143 328.218 345.843 328.633 346.603 328.901C347.363 329.169 348.169 329.285 348.974 329.242C349.78 329.2 350.569 328.999 351.296 328.652C352.024 328.305 352.676 327.819 353.215 327.22L361.425 318.109C361.964 317.511 362.38 316.813 362.649 316.054C362.918 315.296 363.034 314.492 362.991 313.688C362.949 312.885 362.748 312.098 362.4 311.372C362.052 310.646 361.565 309.995 360.965 309.458Z" fill="#DF9802"/>
<path d="M863.049 141.92H950.409L856.889 530H769.529L809.289 364.8H671.529L631.769 530H544.969L637.929 141.92H725.289L689.449 290.88H827.209L863.049 141.92ZM1075.21 537.84C1055.43 537.84 1038.25 534.853 1023.69 528.88C1009.13 522.907 997.001 514.507 987.294 503.68C977.961 492.853 970.868 480.16 966.014 465.6C961.161 450.667 958.734 434.24 958.734 416.32C958.734 393.92 962.281 371.52 969.374 349.12C976.841 326.72 987.668 306.56 1001.85 288.64C1016.04 270.72 1033.4 256.16 1053.93 244.96C1074.47 233.387 1097.99 227.6 1124.49 227.6C1143.91 227.6 1160.89 230.587 1175.45 236.56C1190.39 242.533 1202.52 250.933 1211.85 261.76C1221.56 272.587 1228.84 285.467 1233.69 300.4C1238.55 314.96 1240.97 331.2 1240.97 349.12C1240.97 371.52 1237.43 393.92 1230.33 416.32C1223.24 438.72 1212.79 458.88 1198.97 476.8C1185.16 494.72 1167.8 509.467 1146.89 521.04C1126.36 532.24 1102.47 537.84 1075.21 537.84ZM1116.65 298.16C1104.33 298.16 1093.51 301.707 1084.17 308.8C1074.84 315.893 1067 324.853 1060.65 335.68C1054.31 346.507 1049.45 358.453 1046.09 371.52C1043.11 384.213 1041.61 396.347 1041.61 407.92C1041.61 426.96 1044.6 441.707 1050.57 452.16C1056.55 462.24 1067.37 467.28 1083.05 467.28C1095.37 467.28 1106.2 463.733 1115.53 456.64C1124.87 449.547 1132.71 440.587 1139.05 429.76C1145.4 418.933 1150.07 407.173 1153.05 394.48C1156.41 381.413 1158.09 369.093 1158.09 357.52C1158.09 338.48 1155.11 323.92 1149.13 313.84C1143.16 303.387 1132.33 298.16 1116.65 298.16ZM1331.26 248.88C1337.6 247.013 1344.32 244.96 1351.42 242.72C1358.88 240.107 1367.1 237.867 1376.06 236C1385.39 233.76 1395.66 232.08 1406.86 230.96C1418.43 229.467 1431.68 228.72 1446.62 228.72C1464.54 228.72 1479.28 230.96 1490.86 235.44C1502.8 239.92 1513.63 246.64 1523.34 255.6C1537.15 247.76 1550.78 241.413 1564.22 236.56C1578.03 231.333 1594.08 228.72 1612.38 228.72C1629.92 228.72 1644.86 231.147 1657.18 236C1669.87 240.48 1680.32 247.2 1688.54 256.16C1696.75 264.747 1702.72 275.2 1706.46 287.52C1710.19 299.467 1712.06 312.72 1712.06 327.28C1712.06 334 1711.5 341.093 1710.38 348.56C1709.63 356.027 1708.32 363.493 1706.46 370.96L1668.38 530H1584.94L1621.9 374.32C1623.02 369.093 1624.14 363.307 1625.26 356.96C1626.75 350.24 1627.5 343.707 1627.5 337.36C1627.5 326.907 1625.07 317.947 1620.22 310.48C1615.36 302.64 1605.84 298.72 1591.66 298.72C1583.82 298.72 1576.35 300.213 1569.26 303.2C1562.16 305.813 1555.82 308.613 1550.22 311.6C1550.96 314.587 1551.34 317.387 1551.34 320C1551.34 322.613 1551.34 325.04 1551.34 327.28C1551.34 334 1550.78 341.093 1549.66 348.56C1548.91 356.027 1547.6 363.493 1545.74 370.96L1507.66 530H1424.22L1461.18 374.32C1462.3 369.093 1463.42 363.307 1464.54 356.96C1466.03 350.24 1466.78 343.707 1466.78 337.36C1466.78 326.907 1464.35 317.947 1459.5 310.48C1454.64 302.64 1445.12 298.72 1430.94 298.72C1424.96 298.72 1419.92 299.093 1415.82 299.84C1411.71 300.213 1406.86 300.96 1401.26 302.08L1346.94 530H1263.5L1331.26 248.88ZM1932.53 229.28C1950.45 229.28 1965.94 232.453 1979.01 238.8C1992.08 245.147 2002.9 253.733 2011.49 264.56C2020.08 275.387 2026.42 288.08 2030.53 302.64C2034.64 317.2 2036.69 332.88 2036.69 349.68C2036.69 375.44 2031.84 399.893 2022.13 423.04C2012.8 445.813 1999.92 465.787 1983.49 482.96C1967.06 499.76 1947.65 513.2 1925.25 523.28C1902.85 532.987 1878.58 537.84 1852.45 537.84C1849.09 537.84 1843.12 537.653 1834.53 537.28C1826.32 537.28 1816.8 536.533 1805.97 535.04C1795.14 533.547 1783.57 531.307 1771.25 528.32C1759.3 525.333 1747.92 521.227 1737.09 516L1833.97 108.88L1920.77 95.44L1886.05 239.92C1893.52 236.56 1900.98 233.947 1908.45 232.08C1915.92 230.213 1923.94 229.28 1932.53 229.28ZM1859.73 468.96C1872.8 468.96 1885.12 465.787 1896.69 459.44C1908.26 453.093 1918.16 444.693 1926.37 434.24C1934.96 423.413 1941.68 411.28 1946.53 397.84C1951.38 384.4 1953.81 370.4 1953.81 355.84C1953.81 337.92 1950.82 323.92 1944.85 313.84C1938.88 303.76 1927.86 298.72 1911.81 298.72C1906.58 298.72 1899.68 299.653 1891.09 301.52C1882.88 303.387 1875.41 307.307 1868.69 313.28L1831.73 466.72C1833.97 467.093 1835.84 467.467 1837.33 467.84C1839.2 468.213 1841.06 468.587 1842.93 468.96C1844.8 468.96 1847.04 468.96 1849.65 468.96C1852.26 468.96 1855.62 468.96 1859.73 468.96ZM2142.08 530H2059.2L2129.2 235.44H2212.64L2142.08 530ZM2182.4 199.6C2170.83 199.6 2160.37 196.24 2151.04 189.52C2141.71 182.427 2137.04 171.787 2137.04 157.6C2137.04 149.76 2138.53 142.48 2141.52 135.76C2144.88 128.667 2149.17 122.693 2154.4 117.84C2159.63 112.613 2165.6 108.507 2172.32 105.52C2179.41 102.533 2186.88 101.04 2194.72 101.04C2206.29 101.04 2216.75 104.587 2226.08 111.68C2235.41 118.4 2240.08 128.853 2240.08 143.04C2240.08 150.88 2238.4 158.347 2235.04 165.44C2232.05 172.16 2227.95 178.133 2222.72 183.36C2217.49 188.213 2211.33 192.133 2204.24 195.12C2197.52 198.107 2190.24 199.6 2182.4 199.6ZM2297.87 162.08L2384.67 148.64L2363.39 235.44H2456.35L2439.55 303.76H2347.15L2322.51 406.8C2320.27 415.387 2318.78 423.413 2318.03 430.88C2317.66 438.347 2318.59 444.88 2320.83 450.48C2323.45 455.707 2327.74 459.813 2333.71 462.8C2339.69 465.787 2347.9 467.28 2358.35 467.28C2367.31 467.28 2375.9 466.533 2384.11 465.04C2392.7 463.173 2401.29 460.747 2409.87 457.76L2416.03 521.6C2404.83 525.707 2392.7 529.253 2379.63 532.24C2366.57 535.227 2351.07 536.72 2333.15 536.72C2307.39 536.72 2287.42 532.987 2273.23 525.52C2259.05 517.68 2248.97 507.227 2242.99 494.16C2237.02 480.72 2234.41 465.413 2235.15 448.24C2235.9 431.067 2238.51 412.96 2242.99 393.92L2297.87 162.08ZM2546.52 470.64C2565.56 470.64 2578.63 468.027 2585.72 462.8C2592.82 457.2 2596.36 451.227 2596.36 444.88C2596.36 440.773 2595.62 437.227 2594.12 434.24C2593 431.253 2590.95 428.453 2587.96 425.84C2584.98 423.227 2580.87 420.613 2575.64 418C2570.42 415.013 2563.7 411.653 2555.48 407.92C2546.15 403.813 2537.38 399.52 2529.16 395.04C2520.95 390.187 2513.67 384.587 2507.32 378.24C2501.35 371.52 2496.5 364.053 2492.76 355.84C2489.4 347.253 2487.72 337.173 2487.72 325.6C2487.72 295.36 2498.74 271.467 2520.76 253.92C2543.16 236.373 2575.64 227.6 2618.2 227.6C2638.36 227.6 2656.28 229.84 2671.96 234.32C2687.64 238.8 2700.34 243.653 2710.04 248.88L2681.48 311.04C2673.64 306.933 2663.56 303.013 2651.24 299.28C2638.92 295.547 2626.79 293.68 2614.84 293.68C2609.62 293.68 2604.39 294.053 2599.16 294.8C2594.31 295.173 2589.64 296.293 2585.16 298.16C2581.06 300.027 2577.7 302.64 2575.08 306C2572.47 309.36 2571.16 313.84 2571.16 319.44C2571.16 326.907 2573.96 332.507 2579.56 336.24C2585.54 339.973 2593.75 344.453 2604.2 349.68C2618.76 356.773 2630.9 363.307 2640.6 369.28C2650.31 375.253 2657.96 381.6 2663.56 388.32C2669.54 395.04 2673.83 402.693 2676.44 411.28C2679.06 419.867 2680.36 429.947 2680.36 441.52C2680.36 453.467 2677.75 465.227 2672.52 476.8C2667.67 488.373 2659.83 498.64 2649 507.6C2638.18 516.56 2624.36 523.84 2607.56 529.44C2590.76 535.04 2570.6 537.84 2547.08 537.84C2532.52 537.84 2519.27 536.907 2507.32 535.04C2495.75 533.173 2485.48 530.933 2476.52 528.32C2467.56 525.333 2459.91 522.347 2453.56 519.36C2447.59 516.373 2442.92 513.947 2439.56 512.08L2468.12 448.24C2474.47 451.973 2484.36 456.64 2497.8 462.24C2511.24 467.84 2527.48 470.64 2546.52 470.64Z" fill="#1F2B45"/>
</svg>
